# xmcd
#
# Track frame offsets:
# 150
# 16210
# 33620
# 49460
# 70442
# 86122
# 106752
# 126725
# 139115
# 154195
# 171282
# 188247
# 202535
# 216895
# 234447
# 247922
# 258752
#
# Disc length: 3626 seconds
#
#
# Revision: 0
# Processed by: cddbd v1.5.2PL0 Copyright (c) Steve Scherf et al.
# Submitted via: Nero 7, 11, 10, 0 
#
DISCID=f00e2811
DTITLE=The Fins - Superstar
DYEAR=2000
DGENRE=Blues
TTITLE0=T-Bone Jumps Again
TTITLE1=Wrapped Up
TTITLE2=Trick Bag
TTITLE3=Sufferin' Mind
TTITLE4=Blues Walk
TTITLE5=New York
TTITLE6=Round The World
TTITLE7=I Love To Love You
TTITLE8=Swing Me Tonight
TTITLE9=Right Side Up
TTITLE10=Lovin' Machine
TTITLE11=Gator's Groove
TTITLE12=Superstar
TTITLE13=Breakdown
TTITLE14=Zippy
TTITLE15=One More Kiss
TTITLE16=Spiderman
EXTD=
EXTT0=T-Bone Jumps Again
EXTT1=Wrapped Up
EXTT2=Trick Bag
EXTT3=Sufferin' Mind
EXTT4=Blues Walk
EXTT5=New York
EXTT6=Round The World
EXTT7=I Love To Love You
EXTT8=Swing Me Tonight
EXTT9=Right Side Up
EXTT10=Lovin' Machine
EXTT11=Gator's Groove
EXTT12=Superstar
EXTT13=Breakdown
EXTT14=Zippy
EXTT15=One More Kiss
EXTT16=Spiderman
PLAYORDER=
